<svg xmlns="http://www.w3.org/2000/svg" width="920" height="300" viewBox="0 0 920 300" role="img" aria-label="Finance Repo Telemetry activity">
  
  <style>
    .ui { font-family: 'Segoe UI', Arial, sans-serif; }
    .mono { font-family: 'JetBrains Mono', 'Fira Code', Consolas, monospace; }
    .display { font-family: Georgia, 'Times New Roman', serif; }
    .label { fill: #8FA7C4; font-size: 12px; letter-spacing: 1.2px; text-transform: uppercase; }
    .value { fill: #F4F7FB; font-size: 30px; font-weight: 700; }
    .title { fill: #F4F7FB; font-size: 29px; font-weight: 700; font-family: Georgia, 'Times New Roman', serif; }
    .subtitle { fill: #9DB1C9; font-size: 15px; }
    .eyebrow { fill: #D94A3A; font-size: 13px; font-weight: 700; letter-spacing: 1.8px; }
  </style>

  <rect width="920" height="300" rx="28" fill="#07111D" />
  <rect x="28" y="28" width="864" height="244" rx="22" fill="#09131F" stroke="#1B3556" />
  <text x="54" y="60" class="ui eyebrow">REPO ACTIVITY</text>
  <text x="54" y="94" class="ui title">Finance Repo Telemetry</text>
  <text x="54" y="120" class="ui subtitle">Finance Signal Engine</text>
  <text x="54" y="144" class="ui" fill="#8FA7C4" font-size="13">84-day repo activity - 63 commits in the last 30 days</text>

  <text x="54" y="182" class="ui label">30D Volume</text>
  <text x="54" y="214" class="mono" fill="#F4F7FB" font-size="28" font-weight="700">63 sessions</text>
  <text x="54" y="244" class="ui" fill="#8FA7C4" font-size="12">Last print: Mar 26</text>

  <text x="196" y="182" class="ui label">Active Days</text>
  <text x="196" y="214" class="mono" fill="#DCE7F3" font-size="24" font-weight="700">29 sessions</text>

  <text x="196" y="244" class="ui label">Peak Session</text>
  <text x="196" y="266" class="mono" fill="#D94A3A" font-size="20" font-weight="700">15 commits</text>

  <text x="54" y="266" class="ui label">Current Streak</text>
  <text x="54" y="288" class="mono" fill="#2F66B3" font-size="20" font-weight="700">3 days</text>

  <line x1="322" y1="72" x2="322" y2="244" stroke="#1B3556" />
  <text x="372" y="60" class="ui label">Session Tape</text>
  <text x="372" y="78" class="mono" fill="#6F89A9" font-size="11">Dec 29</text><text x="540" y="78" class="mono" fill="#6F89A9" font-size="11">Feb 09</text><text x="708" y="78" class="mono" fill="#6F89A9" font-size="11">Mar 23</text>
  <text x="338" y="110" class="ui" fill="#6F89A9" font-size="11" text-anchor="end">Mon</text><text x="338" y="132" class="ui" fill="#6F89A9" font-size="11" text-anchor="end">Tue</text><text x="338" y="154" class="ui" fill="#6F89A9" font-size="11" text-anchor="end">Wed</text><text x="338" y="176" class="ui" fill="#6F89A9" font-size="11" text-anchor="end">Thu</text><text x="338" y="198" class="ui" fill="#6F89A9" font-size="11" text-anchor="end">Fri</text><text x="338" y="220" class="ui" fill="#6F89A9" font-size="11" text-anchor="end">Sat</text><text x="338" y="242" class="ui" fill="#6F89A9" font-size="11" text-anchor="end">Sun</text>
  <text x="592" y="60" class="ui label">Low</text>
  <rect x="626" y="48" width="14" height="14" rx="4" fill="#173865" />
  <rect x="648" y="48" width="14" height="14" rx="4" fill="#2F66B3" />
  <rect x="670" y="48" width="14" height="14" rx="4" fill="#DCE7F3" />
  <rect x="692" y="48" width="14" height="14" rx="4" fill="#D94A3A" />
  <text x="718" y="60" class="ui label">High</text>
  <rect x="372" y="190" width="14" height="14" rx="4" fill="#0B1420" /><rect x="372" y="212" width="14" height="14" rx="4" fill="#0B1420" /><rect x="372" y="234" width="14" height="14" rx="4" fill="#0B1420" /><rect x="400" y="102" width="14" height="14" rx="4" fill="#0B1420" /><rect x="400" y="124" width="14" height="14" rx="4" fill="#0B1420" /><rect x="400" y="146" width="14" height="14" rx="4" fill="#0B1420" /><rect x="400" y="168" width="14" height="14" rx="4" fill="#0B1420" /><rect x="400" y="190" width="14" height="14" rx="4" fill="#0B1420" /><rect x="400" y="212" width="14" height="14" rx="4" fill="#0B1420" /><rect x="400" y="234" width="14" height="14" rx="4" fill="#0B1420" /><rect x="428" y="102" width="14" height="14" rx="4" fill="#0B1420" /><rect x="428" y="124" width="14" height="14" rx="4" fill="#0B1420" /><rect x="428" y="146" width="14" height="14" rx="4" fill="#0B1420" /><rect x="428" y="168" width="14" height="14" rx="4" fill="#0B1420" /><rect x="428" y="190" width="14" height="14" rx="4" fill="#0B1420" /><rect x="428" y="212" width="14" height="14" rx="4" fill="#0B1420" /><rect x="428" y="234" width="14" height="14" rx="4" fill="#0B1420" /><rect x="456" y="102" width="14" height="14" rx="4" fill="#0B1420" /><rect x="456" y="124" width="14" height="14" rx="4" fill="#0B1420" /><rect x="456" y="146" width="14" height="14" rx="4" fill="#0B1420" /><rect x="456" y="168" width="14" height="14" rx="4" fill="#0B1420" /><rect x="456" y="190" width="14" height="14" rx="4" fill="#0B1420" /><rect x="456" y="212" width="14" height="14" rx="4" fill="#0B1420" /><rect x="456" y="234" width="14" height="14" rx="4" fill="#0B1420" /><rect x="484" y="102" width="14" height="14" rx="4" fill="#0B1420" /><rect x="484" y="124" width="14" height="14" rx="4" fill="#0B1420" /><rect x="484" y="146" width="14" height="14" rx="4" fill="#0B1420" /><rect x="484" y="168" width="14" height="14" rx="4" fill="#0B1420" /><rect x="484" y="190" width="14" height="14" rx="4" fill="#0B1420" /><rect x="484" y="212" width="14" height="14" rx="4" fill="#0B1420" /><rect x="484" y="234" width="14" height="14" rx="4" fill="#2F66B3" /><rect x="512" y="102" width="14" height="14" rx="4" fill="#D94A3A" /><rect x="512" y="124" width="14" height="14" rx="4" fill="#2F66B3" /><rect x="512" y="146" width="14" height="14" rx="4" fill="#D94A3A" /><rect x="512" y="168" width="14" height="14" rx="4" fill="#173865" /><rect x="512" y="190" width="14" height="14" rx="4" fill="#0B1420" /><rect x="512" y="212" width="14" height="14" rx="4" fill="#0B1420" /><rect x="512" y="234" width="14" height="14" rx="4" fill="#0B1420" /><rect x="540" y="102" width="14" height="14" rx="4" fill="#0B1420" /><rect x="540" y="124" width="14" height="14" rx="4" fill="#173865" /><rect x="540" y="146" width="14" height="14" rx="4" fill="#0B1420" /><rect x="540" y="168" width="14" height="14" rx="4" fill="#2F66B3" /><rect x="540" y="190" width="14" height="14" rx="4" fill="#2F66B3" /><rect x="540" y="212" width="14" height="14" rx="4" fill="#0B1420" /><rect x="540" y="234" width="14" height="14" rx="4" fill="#0B1420" /><rect x="568" y="102" width="14" height="14" rx="4" fill="#0B1420" /><rect x="568" y="124" width="14" height="14" rx="4" fill="#DCE7F3" /><rect x="568" y="146" width="14" height="14" rx="4" fill="#173865" /><rect x="568" y="168" width="14" height="14" rx="4" fill="#0B1420" /><rect x="568" y="190" width="14" height="14" rx="4" fill="#DCE7F3" /><rect x="568" y="212" width="14" height="14" rx="4" fill="#0B1420" /><rect x="568" y="234" width="14" height="14" rx="4" fill="#2F66B3" /><rect x="596" y="102" width="14" height="14" rx="4" fill="#2F66B3" /><rect x="596" y="124" width="14" height="14" rx="4" fill="#DCE7F3" /><rect x="596" y="146" width="14" height="14" rx="4" fill="#173865" /><rect x="596" y="168" width="14" height="14" rx="4" fill="#173865" /><rect x="596" y="190" width="14" height="14" rx="4" fill="#0B1420" /><rect x="596" y="212" width="14" height="14" rx="4" fill="#173865" /><rect x="596" y="234" width="14" height="14" rx="4" fill="#0B1420" /><rect x="624" y="102" width="14" height="14" rx="4" fill="#DCE7F3" /><rect x="624" y="124" width="14" height="14" rx="4" fill="#D94A3A" /><rect x="624" y="146" width="14" height="14" rx="4" fill="#173865" /><rect x="624" y="168" width="14" height="14" rx="4" fill="#173865" /><rect x="624" y="190" width="14" height="14" rx="4" fill="#0B1420" /><rect x="624" y="212" width="14" height="14" rx="4" fill="#0B1420" /><rect x="624" y="234" width="14" height="14" rx="4" fill="#0B1420" /><rect x="652" y="102" width="14" height="14" rx="4" fill="#0B1420" /><rect x="652" y="124" width="14" height="14" rx="4" fill="#2F66B3" /><rect x="652" y="146" width="14" height="14" rx="4" fill="#0B1420" /><rect x="652" y="168" width="14" height="14" rx="4" fill="#0B1420" /><rect x="652" y="190" width="14" height="14" rx="4" fill="#0B1420" /><rect x="652" y="212" width="14" height="14" rx="4" fill="#0B1420" /><rect x="652" y="234" width="14" height="14" rx="4" fill="#2F66B3" /><rect x="680" y="102" width="14" height="14" rx="4" fill="#173865" /><rect x="680" y="124" width="14" height="14" rx="4" fill="#D94A3A" /><rect x="680" y="146" width="14" height="14" rx="4" fill="#0B1420" /><rect x="680" y="168" width="14" height="14" rx="4" fill="#0B1420" /><rect x="680" y="190" width="14" height="14" rx="4" fill="#173865" /><rect x="680" y="212" width="14" height="14" rx="4" fill="#0B1420" /><rect x="680" y="234" width="14" height="14" rx="4" fill="#0B1420" /><rect x="708" y="102" width="14" height="14" rx="4" fill="#0B1420" /><rect x="708" y="124" width="14" height="14" rx="4" fill="#2F66B3" /><rect x="708" y="146" width="14" height="14" rx="4" fill="#173865" /><rect x="708" y="168" width="14" height="14" rx="4" fill="#173865" />
  <text x="372" y="264" class="mono" fill="#6F89A9" font-size="11">Jan 02</text>
  <text x="702" y="264" class="mono" fill="#6F89A9" font-size="11">Mar 26</text>
</svg>
