<svg xmlns="http://www.w3.org/2000/svg" width="920" height="320" viewBox="0 0 920 320" role="img" aria-label="Finance Repo Telemetry activity">
  
  <style>
    .ui { font-family: 'Segoe UI', Arial, sans-serif; }
    .mono { font-family: 'IBM Plex Mono', 'JetBrains Mono', 'Fira Code', Consolas, monospace; }
    .display { font-family: 'Segoe UI', Arial, sans-serif; font-weight: 700; }
    .eyebrow { fill: #FAFAFA; font-size: 12px; font-weight: 700; letter-spacing: 2.4px; text-transform: uppercase; }
    .title { fill: #FAFAFA; font-size: 31px; font-weight: 700; }
    .subtitle { fill: #D4D4D4; font-size: 15px; }
    .label { fill: #A8A8A8; font-size: 11px; letter-spacing: 1.8px; text-transform: uppercase; }
    .value { fill: #FFFFFF; font-size: 28px; font-weight: 700; }
    .muted { fill: #8C8C8C; font-size: 12px; }
    .grid-label { fill: #9E9E9E; font-size: 11px; }
  </style>

  <rect width="920" height="320" rx="28" fill="#020202" />
  <rect x="24" y="24" width="872" height="272" rx="18" fill="#070707" stroke="#2B2B2B" />

  <text x="74" y="58" class="mono eyebrow">REPO ACTIVITY</text>
  <text x="74" y="76" class="ui label">SESSION SUMMARY</text>
  <text x="74" y="102" class="ui title" font-size="19">Finance Repo Telemetry</text>
  <text x="74" y="124" class="ui subtitle" font-size="13">Finance Signal Engine</text>
  <text x="74" y="142" class="ui muted">84-day repo activity - 63 commits in the last 30 days</text>

  <line x1="344" y1="40" x2="344" y2="278" stroke="#232323" />

  <text x="74" y="182" class="ui label">30D COMMITS</text>
  <text x="74" y="202" class="mono" fill="#FFFFFF" font-size="18" font-weight="700">63 sessions</text>

  <text x="204" y="182" class="ui label">ACTIVE DAYS</text>
  <text x="204" y="202" class="mono" fill="#FFFFFF" font-size="18" font-weight="700">29 sessions</text>

  <text x="74" y="238" class="ui label">PEAK SESSION</text>
  <text x="74" y="258" class="mono" fill="#FFFFFF" font-size="18" font-weight="700">15 commits</text>

  <text x="204" y="238" class="ui label">CURRENT STREAK</text>
  <text x="204" y="258" class="mono" fill="#FFFFFF" font-size="18" font-weight="700">3 days</text>
  <text x="74" y="278" class="ui muted">Last print: Mar 26</text>

  <text x="374" y="58" class="mono eyebrow">SESSION TAPE</text>
  <text x="374" y="80" class="ui muted">84 trading days rendered as an execution-style activity grid.</text>
  <text x="692" y="58" class="ui label">LOW</text>
  <rect x="730" y="46" width="12" height="12" rx="3" fill="#101010" />
  <rect x="750" y="46" width="12" height="12" rx="3" fill="#333333" />
  <rect x="770" y="46" width="12" height="12" rx="3" fill="#666666" />
  <rect x="790" y="46" width="12" height="12" rx="3" fill="#B5B5B5" />
  <rect x="810" y="46" width="12" height="12" rx="3" fill="#FFFFFF" />
  <text x="830" y="58" class="ui label">HIGH</text>

  <text x="420" y="108" class="mono grid-label">Dec 29</text><text x="564" y="108" class="mono grid-label">Feb 09</text><text x="708" y="108" class="mono grid-label">Mar 23</text>
  <text x="404" y="137" class="ui grid-label" text-anchor="end">Mon</text><text x="404" y="157" class="ui grid-label" text-anchor="end">Tue</text><text x="404" y="177" class="ui grid-label" text-anchor="end">Wed</text><text x="404" y="197" class="ui grid-label" text-anchor="end">Thu</text><text x="404" y="217" class="ui grid-label" text-anchor="end">Fri</text><text x="404" y="237" class="ui grid-label" text-anchor="end">Sat</text><text x="404" y="257" class="ui grid-label" text-anchor="end">Sun</text>
  <rect x="420" y="124" width="12" height="12" rx="3" fill="#101010" /><rect x="420" y="144" width="12" height="12" rx="3" fill="#101010" /><rect x="420" y="164" width="12" height="12" rx="3" fill="#101010" /><rect x="420" y="184" width="12" height="12" rx="3" fill="#101010" /><rect x="420" y="204" width="12" height="12" rx="3" fill="#101010" /><rect x="420" y="224" width="12" height="12" rx="3" fill="#101010" /><rect x="420" y="244" width="12" height="12" rx="3" fill="#101010" /><rect x="444" y="124" width="12" height="12" rx="3" fill="#101010" /><rect x="444" y="144" width="12" height="12" rx="3" fill="#101010" /><rect x="444" y="164" width="12" height="12" rx="3" fill="#101010" /><rect x="444" y="184" width="12" height="12" rx="3" fill="#101010" /><rect x="444" y="204" width="12" height="12" rx="3" fill="#101010" /><rect x="444" y="224" width="12" height="12" rx="3" fill="#101010" /><rect x="444" y="244" width="12" height="12" rx="3" fill="#101010" /><rect x="468" y="124" width="12" height="12" rx="3" fill="#101010" /><rect x="468" y="144" width="12" height="12" rx="3" fill="#101010" /><rect x="468" y="164" width="12" height="12" rx="3" fill="#101010" /><rect x="468" y="184" width="12" height="12" rx="3" fill="#101010" /><rect x="468" y="204" width="12" height="12" rx="3" fill="#101010" /><rect x="468" y="224" width="12" height="12" rx="3" fill="#101010" /><rect x="468" y="244" width="12" height="12" rx="3" fill="#101010" /><rect x="492" y="124" width="12" height="12" rx="3" fill="#101010" /><rect x="492" y="144" width="12" height="12" rx="3" fill="#101010" /><rect x="492" y="164" width="12" height="12" rx="3" fill="#101010" /><rect x="492" y="184" width="12" height="12" rx="3" fill="#101010" /><rect x="492" y="204" width="12" height="12" rx="3" fill="#101010" /><rect x="492" y="224" width="12" height="12" rx="3" fill="#101010" /><rect x="492" y="244" width="12" height="12" rx="3" fill="#101010" /><rect x="516" y="124" width="12" height="12" rx="3" fill="#101010" /><rect x="516" y="144" width="12" height="12" rx="3" fill="#101010" /><rect x="516" y="164" width="12" height="12" rx="3" fill="#101010" /><rect x="516" y="184" width="12" height="12" rx="3" fill="#101010" /><rect x="516" y="204" width="12" height="12" rx="3" fill="#101010" /><rect x="516" y="224" width="12" height="12" rx="3" fill="#101010" /><rect x="516" y="244" width="12" height="12" rx="3" fill="#666666" /><rect x="540" y="124" width="12" height="12" rx="3" fill="#FFFFFF" /><rect x="540" y="144" width="12" height="12" rx="3" fill="#666666" /><rect x="540" y="164" width="12" height="12" rx="3" fill="#FFFFFF" /><rect x="540" y="184" width="12" height="12" rx="3" fill="#333333" /><rect x="540" y="204" width="12" height="12" rx="3" fill="#101010" /><rect x="540" y="224" width="12" height="12" rx="3" fill="#101010" /><rect x="540" y="244" width="12" height="12" rx="3" fill="#101010" /><rect x="564" y="124" width="12" height="12" rx="3" fill="#101010" /><rect x="564" y="144" width="12" height="12" rx="3" fill="#333333" /><rect x="564" y="164" width="12" height="12" rx="3" fill="#101010" /><rect x="564" y="184" width="12" height="12" rx="3" fill="#666666" /><rect x="564" y="204" width="12" height="12" rx="3" fill="#666666" /><rect x="564" y="224" width="12" height="12" rx="3" fill="#101010" /><rect x="564" y="244" width="12" height="12" rx="3" fill="#101010" /><rect x="588" y="124" width="12" height="12" rx="3" fill="#101010" /><rect x="588" y="144" width="12" height="12" rx="3" fill="#B5B5B5" /><rect x="588" y="164" width="12" height="12" rx="3" fill="#333333" /><rect x="588" y="184" width="12" height="12" rx="3" fill="#101010" /><rect x="588" y="204" width="12" height="12" rx="3" fill="#B5B5B5" /><rect x="588" y="224" width="12" height="12" rx="3" fill="#101010" /><rect x="588" y="244" width="12" height="12" rx="3" fill="#666666" /><rect x="612" y="124" width="12" height="12" rx="3" fill="#666666" /><rect x="612" y="144" width="12" height="12" rx="3" fill="#B5B5B5" /><rect x="612" y="164" width="12" height="12" rx="3" fill="#333333" /><rect x="612" y="184" width="12" height="12" rx="3" fill="#333333" /><rect x="612" y="204" width="12" height="12" rx="3" fill="#101010" /><rect x="612" y="224" width="12" height="12" rx="3" fill="#333333" /><rect x="612" y="244" width="12" height="12" rx="3" fill="#101010" /><rect x="636" y="124" width="12" height="12" rx="3" fill="#B5B5B5" /><rect x="636" y="144" width="12" height="12" rx="3" fill="#FFFFFF" /><rect x="636" y="164" width="12" height="12" rx="3" fill="#333333" /><rect x="636" y="184" width="12" height="12" rx="3" fill="#333333" /><rect x="636" y="204" width="12" height="12" rx="3" fill="#101010" /><rect x="636" y="224" width="12" height="12" rx="3" fill="#101010" /><rect x="636" y="244" width="12" height="12" rx="3" fill="#101010" /><rect x="660" y="124" width="12" height="12" rx="3" fill="#101010" /><rect x="660" y="144" width="12" height="12" rx="3" fill="#666666" /><rect x="660" y="164" width="12" height="12" rx="3" fill="#101010" /><rect x="660" y="184" width="12" height="12" rx="3" fill="#101010" /><rect x="660" y="204" width="12" height="12" rx="3" fill="#101010" /><rect x="660" y="224" width="12" height="12" rx="3" fill="#101010" /><rect x="660" y="244" width="12" height="12" rx="3" fill="#666666" /><rect x="684" y="124" width="12" height="12" rx="3" fill="#333333" /><rect x="684" y="144" width="12" height="12" rx="3" fill="#FFFFFF" /><rect x="684" y="164" width="12" height="12" rx="3" fill="#101010" /><rect x="684" y="184" width="12" height="12" rx="3" fill="#101010" /><rect x="684" y="204" width="12" height="12" rx="3" fill="#333333" /><rect x="684" y="224" width="12" height="12" rx="3" fill="#101010" /><rect x="684" y="244" width="12" height="12" rx="3" fill="#101010" /><rect x="708" y="124" width="12" height="12" rx="3" fill="#101010" /><rect x="708" y="144" width="12" height="12" rx="3" fill="#666666" /><rect x="708" y="164" width="12" height="12" rx="3" fill="#333333" /><rect x="708" y="184" width="12" height="12" rx="3" fill="#333333" /><rect x="708" y="204" width="12" height="12" rx="3" fill="#101010" /><rect x="708" y="224" width="12" height="12" rx="3" fill="#101010" /><rect x="708" y="244" width="12" height="12" rx="3" fill="#101010" />
  <line x1="420" y1="266" x2="708" y2="266" stroke="#171717" />
  <text x="420" y="278" class="mono grid-label">Jan 02</text>
  <text x="708" y="278" class="mono grid-label">Mar 26</text>
</svg>
