<svg xmlns="http://www.w3.org/2000/svg" width="920" height="420" viewBox="0 0 920 420" role="img" aria-label="Finance Repo Telemetry activity">
  
  <style>
    .ui { font-family: 'Segoe UI', Arial, sans-serif; }
    .mono { font-family: 'IBM Plex Mono', 'JetBrains Mono', 'Fira Code', Consolas, monospace; }
    .display { font-family: 'Segoe UI', Arial, sans-serif; font-weight: 700; }
    .eyebrow { fill: #FAFAFA; font-size: 12px; font-weight: 700; letter-spacing: 2.4px; text-transform: uppercase; }
    .title { fill: #FAFAFA; font-size: 31px; font-weight: 700; }
    .subtitle { fill: #D4D4D4; font-size: 15px; }
    .label { fill: #A8A8A8; font-size: 11px; letter-spacing: 1.8px; text-transform: uppercase; }
    .value { fill: #FFFFFF; font-size: 28px; font-weight: 700; }
    .muted { fill: #8C8C8C; font-size: 12px; }
    .grid-label { fill: #9E9E9E; font-size: 11px; }
  </style>

  <rect width="920" height="420" rx="28" fill="#020202" />
  <rect x="24" y="24" width="872" height="112" rx="18" fill="#070707" stroke="#2B2B2B" />
  <rect x="24" y="152" width="872" height="244" rx="18" fill="#070707" stroke="#2B2B2B" />

  <text x="44" y="58" class="mono eyebrow">REPO ACTIVITY</text>
  <text x="44" y="78" class="ui label">SESSION SUMMARY</text>
  <text x="44" y="92" class="ui title">Finance Repo Telemetry</text>
  <text x="44" y="116" class="ui subtitle">Finance Signal Engine</text>
  <text x="44" y="134" class="ui muted">84-day repo activity - 63 commits in the last 30 days</text>

  <line x1="360" y1="44" x2="360" y2="116" stroke="#232323" />
  <line x1="494" y1="44" x2="494" y2="116" stroke="#232323" />
  <line x1="628" y1="44" x2="628" y2="116" stroke="#232323" />
  <line x1="762" y1="44" x2="762" y2="116" stroke="#232323" />

  <text x="384" y="60" class="ui label">30D COMMITS</text>
  <text x="384" y="96" class="mono value">63 sessions</text>

  <text x="518" y="60" class="ui label">ACTIVE DAYS</text>
  <text x="518" y="96" class="mono value">29 sessions</text>

  <text x="652" y="60" class="ui label">PEAK SESSION</text>
  <text x="652" y="96" class="mono value">15 commits</text>

  <text x="786" y="60" class="ui label">CURRENT STREAK</text>
  <text x="786" y="96" class="mono" fill="#FFFFFF" font-size="24" font-weight="700">3 days</text>
  <text x="786" y="118" class="ui muted">Last print: Mar 26</text>

  <text x="44" y="186" class="mono eyebrow">SESSION TAPE</text>
  <text x="44" y="210" class="ui muted">84 trading days rendered as an execution-style activity grid.</text>
  <text x="706" y="186" class="ui label">LOW</text>
  <rect x="744" y="174" width="14" height="14" rx="3" fill="#101010" />
  <rect x="766" y="174" width="14" height="14" rx="3" fill="#333333" />
  <rect x="788" y="174" width="14" height="14" rx="3" fill="#666666" />
  <rect x="810" y="174" width="14" height="14" rx="3" fill="#B5B5B5" />
  <rect x="832" y="174" width="14" height="14" rx="3" fill="#FFFFFF" />
  <text x="854" y="186" class="ui label">HIGH</text>

  <text x="116" y="206" class="mono grid-label">Dec 29</text><text x="272" y="206" class="mono grid-label">Feb 09</text><text x="428" y="206" class="mono grid-label">Mar 23</text>
  <text x="92" y="235" class="ui grid-label" text-anchor="end">Mon</text><text x="92" y="257" class="ui grid-label" text-anchor="end">Tue</text><text x="92" y="279" class="ui grid-label" text-anchor="end">Wed</text><text x="92" y="301" class="ui grid-label" text-anchor="end">Thu</text><text x="92" y="323" class="ui grid-label" text-anchor="end">Fri</text><text x="92" y="345" class="ui grid-label" text-anchor="end">Sat</text><text x="92" y="367" class="ui grid-label" text-anchor="end">Sun</text>
  <rect x="116" y="224" width="14" height="14" rx="3" fill="#101010" /><rect x="116" y="246" width="14" height="14" rx="3" fill="#101010" /><rect x="116" y="268" width="14" height="14" rx="3" fill="#101010" /><rect x="116" y="290" width="14" height="14" rx="3" fill="#101010" /><rect x="116" y="312" width="14" height="14" rx="3" fill="#101010" /><rect x="116" y="334" width="14" height="14" rx="3" fill="#101010" /><rect x="116" y="356" width="14" height="14" rx="3" fill="#101010" /><rect x="142" y="224" width="14" height="14" rx="3" fill="#101010" /><rect x="142" y="246" width="14" height="14" rx="3" fill="#101010" /><rect x="142" y="268" width="14" height="14" rx="3" fill="#101010" /><rect x="142" y="290" width="14" height="14" rx="3" fill="#101010" /><rect x="142" y="312" width="14" height="14" rx="3" fill="#101010" /><rect x="142" y="334" width="14" height="14" rx="3" fill="#101010" /><rect x="142" y="356" width="14" height="14" rx="3" fill="#101010" /><rect x="168" y="224" width="14" height="14" rx="3" fill="#101010" /><rect x="168" y="246" width="14" height="14" rx="3" fill="#101010" /><rect x="168" y="268" width="14" height="14" rx="3" fill="#101010" /><rect x="168" y="290" width="14" height="14" rx="3" fill="#101010" /><rect x="168" y="312" width="14" height="14" rx="3" fill="#101010" /><rect x="168" y="334" width="14" height="14" rx="3" fill="#101010" /><rect x="168" y="356" width="14" height="14" rx="3" fill="#101010" /><rect x="194" y="224" width="14" height="14" rx="3" fill="#101010" /><rect x="194" y="246" width="14" height="14" rx="3" fill="#101010" /><rect x="194" y="268" width="14" height="14" rx="3" fill="#101010" /><rect x="194" y="290" width="14" height="14" rx="3" fill="#101010" /><rect x="194" y="312" width="14" height="14" rx="3" fill="#101010" /><rect x="194" y="334" width="14" height="14" rx="3" fill="#101010" /><rect x="194" y="356" width="14" height="14" rx="3" fill="#101010" /><rect x="220" y="224" width="14" height="14" rx="3" fill="#101010" /><rect x="220" y="246" width="14" height="14" rx="3" fill="#101010" /><rect x="220" y="268" width="14" height="14" rx="3" fill="#101010" /><rect x="220" y="290" width="14" height="14" rx="3" fill="#101010" /><rect x="220" y="312" width="14" height="14" rx="3" fill="#101010" /><rect x="220" y="334" width="14" height="14" rx="3" fill="#101010" /><rect x="220" y="356" width="14" height="14" rx="3" fill="#666666" /><rect x="246" y="224" width="14" height="14" rx="3" fill="#FFFFFF" /><rect x="246" y="246" width="14" height="14" rx="3" fill="#666666" /><rect x="246" y="268" width="14" height="14" rx="3" fill="#FFFFFF" /><rect x="246" y="290" width="14" height="14" rx="3" fill="#333333" /><rect x="246" y="312" width="14" height="14" rx="3" fill="#101010" /><rect x="246" y="334" width="14" height="14" rx="3" fill="#101010" /><rect x="246" y="356" width="14" height="14" rx="3" fill="#101010" /><rect x="272" y="224" width="14" height="14" rx="3" fill="#101010" /><rect x="272" y="246" width="14" height="14" rx="3" fill="#333333" /><rect x="272" y="268" width="14" height="14" rx="3" fill="#101010" /><rect x="272" y="290" width="14" height="14" rx="3" fill="#666666" /><rect x="272" y="312" width="14" height="14" rx="3" fill="#666666" /><rect x="272" y="334" width="14" height="14" rx="3" fill="#101010" /><rect x="272" y="356" width="14" height="14" rx="3" fill="#101010" /><rect x="298" y="224" width="14" height="14" rx="3" fill="#101010" /><rect x="298" y="246" width="14" height="14" rx="3" fill="#B5B5B5" /><rect x="298" y="268" width="14" height="14" rx="3" fill="#333333" /><rect x="298" y="290" width="14" height="14" rx="3" fill="#101010" /><rect x="298" y="312" width="14" height="14" rx="3" fill="#B5B5B5" /><rect x="298" y="334" width="14" height="14" rx="3" fill="#101010" /><rect x="298" y="356" width="14" height="14" rx="3" fill="#666666" /><rect x="324" y="224" width="14" height="14" rx="3" fill="#666666" /><rect x="324" y="246" width="14" height="14" rx="3" fill="#B5B5B5" /><rect x="324" y="268" width="14" height="14" rx="3" fill="#333333" /><rect x="324" y="290" width="14" height="14" rx="3" fill="#333333" /><rect x="324" y="312" width="14" height="14" rx="3" fill="#101010" /><rect x="324" y="334" width="14" height="14" rx="3" fill="#333333" /><rect x="324" y="356" width="14" height="14" rx="3" fill="#101010" /><rect x="350" y="224" width="14" height="14" rx="3" fill="#B5B5B5" /><rect x="350" y="246" width="14" height="14" rx="3" fill="#FFFFFF" /><rect x="350" y="268" width="14" height="14" rx="3" fill="#333333" /><rect x="350" y="290" width="14" height="14" rx="3" fill="#333333" /><rect x="350" y="312" width="14" height="14" rx="3" fill="#101010" /><rect x="350" y="334" width="14" height="14" rx="3" fill="#101010" /><rect x="350" y="356" width="14" height="14" rx="3" fill="#101010" /><rect x="376" y="224" width="14" height="14" rx="3" fill="#101010" /><rect x="376" y="246" width="14" height="14" rx="3" fill="#666666" /><rect x="376" y="268" width="14" height="14" rx="3" fill="#101010" /><rect x="376" y="290" width="14" height="14" rx="3" fill="#101010" /><rect x="376" y="312" width="14" height="14" rx="3" fill="#101010" /><rect x="376" y="334" width="14" height="14" rx="3" fill="#101010" /><rect x="376" y="356" width="14" height="14" rx="3" fill="#666666" /><rect x="402" y="224" width="14" height="14" rx="3" fill="#333333" /><rect x="402" y="246" width="14" height="14" rx="3" fill="#FFFFFF" /><rect x="402" y="268" width="14" height="14" rx="3" fill="#101010" /><rect x="402" y="290" width="14" height="14" rx="3" fill="#101010" /><rect x="402" y="312" width="14" height="14" rx="3" fill="#333333" /><rect x="402" y="334" width="14" height="14" rx="3" fill="#101010" /><rect x="402" y="356" width="14" height="14" rx="3" fill="#101010" /><rect x="428" y="224" width="14" height="14" rx="3" fill="#101010" /><rect x="428" y="246" width="14" height="14" rx="3" fill="#666666" /><rect x="428" y="268" width="14" height="14" rx="3" fill="#333333" /><rect x="428" y="290" width="14" height="14" rx="3" fill="#333333" /><rect x="428" y="312" width="14" height="14" rx="3" fill="#101010" /><rect x="428" y="334" width="14" height="14" rx="3" fill="#101010" /><rect x="428" y="356" width="14" height="14" rx="3" fill="#101010" />
  <line x1="116" y1="374" x2="440" y2="374" stroke="#171717" />
  <text x="116" y="386" class="mono grid-label">Jan 02</text>
  <text x="428" y="386" class="mono grid-label">Mar 26</text>
</svg>
