<svg xmlns="http://www.w3.org/2000/svg" width="920" height="420" viewBox="0 0 920 420" role="img" aria-label="Finance Repo Telemetry activity">
  
  <style>
    .ui { font-family: 'Segoe UI', Arial, sans-serif; }
    .mono { font-family: 'IBM Plex Mono', 'JetBrains Mono', 'Fira Code', Consolas, monospace; }
    .display { font-family: 'Segoe UI', Arial, sans-serif; font-weight: 700; }
    .eyebrow { fill: #FAFAFA; font-size: 12px; font-weight: 700; letter-spacing: 2.4px; text-transform: uppercase; }
    .title { fill: #FAFAFA; font-size: 31px; font-weight: 700; }
    .subtitle { fill: #D4D4D4; font-size: 15px; }
    .label { fill: #A8A8A8; font-size: 11px; letter-spacing: 1.8px; text-transform: uppercase; }
    .value { fill: #FFFFFF; font-size: 28px; font-weight: 700; }
    .muted { fill: #8C8C8C; font-size: 12px; }
    .grid-label { fill: #9E9E9E; font-size: 11px; }
  </style>

  <rect width="920" height="420" rx="28" fill="#020202" />
  <rect x="24" y="24" width="872" height="118" rx="18" fill="#070707" stroke="#2B2B2B" />
  <rect x="24" y="158" width="872" height="238" rx="18" fill="#070707" stroke="#2B2B2B" />

  <text x="44" y="58" class="mono eyebrow">REPO ACTIVITY</text>
  <text x="44" y="76" class="ui label">SESSION SUMMARY</text>
  <text x="44" y="98" class="ui title" font-size="24">Finance Repo Telemetry</text>
  <text x="44" y="120" class="ui subtitle" font-size="13">Finance Signal Engine</text>
  <text x="44" y="138" class="ui muted">84-day repo activity - 63 commits in the last 30 days</text>

  <line x1="316" y1="44" x2="316" y2="126" stroke="#232323" />
  <line x1="546" y1="48" x2="546" y2="118" stroke="#232323" />
  <line x1="316" y1="86" x2="872" y2="86" stroke="#1A1A1A" />

  <text x="342" y="64" class="ui label">30D COMMITS</text>
  <text x="342" y="84" class="mono" fill="#FFFFFF" font-size="18" font-weight="700">63 sessions</text>

  <text x="572" y="64" class="ui label">ACTIVE DAYS</text>
  <text x="572" y="84" class="mono" fill="#FFFFFF" font-size="18" font-weight="700">29 sessions</text>

  <text x="342" y="106" class="ui label">PEAK SESSION</text>
  <text x="342" y="126" class="mono" fill="#FFFFFF" font-size="18" font-weight="700">15 commits</text>

  <text x="572" y="106" class="ui label">CURRENT STREAK</text>
  <text x="572" y="126" class="mono" fill="#FFFFFF" font-size="18" font-weight="700">3 days</text>
  <text x="760" y="126" class="ui muted" text-anchor="end">Last print: Mar 26</text>

  <text x="44" y="190" class="mono eyebrow">SESSION TAPE</text>
  <text x="44" y="212" class="ui muted">84 trading days rendered as an execution-style activity grid.</text>
  <text x="692" y="190" class="ui label">LOW</text>
  <rect x="730" y="178" width="14" height="14" rx="3" fill="#101010" />
  <rect x="752" y="178" width="14" height="14" rx="3" fill="#333333" />
  <rect x="774" y="178" width="14" height="14" rx="3" fill="#666666" />
  <rect x="796" y="178" width="14" height="14" rx="3" fill="#B5B5B5" />
  <rect x="818" y="178" width="14" height="14" rx="3" fill="#FFFFFF" />
  <text x="840" y="190" class="ui label">HIGH</text>

  <text x="156" y="232" class="mono grid-label">Dec 29</text><text x="312" y="232" class="mono grid-label">Feb 09</text><text x="468" y="232" class="mono grid-label">Mar 23</text>
  <text x="132" y="257" class="ui grid-label" text-anchor="end">Mon</text><text x="132" y="279" class="ui grid-label" text-anchor="end">Tue</text><text x="132" y="301" class="ui grid-label" text-anchor="end">Wed</text><text x="132" y="323" class="ui grid-label" text-anchor="end">Thu</text><text x="132" y="345" class="ui grid-label" text-anchor="end">Fri</text><text x="132" y="367" class="ui grid-label" text-anchor="end">Sat</text><text x="132" y="389" class="ui grid-label" text-anchor="end">Sun</text>
  <rect x="156" y="246" width="14" height="14" rx="3" fill="#101010" /><rect x="156" y="268" width="14" height="14" rx="3" fill="#101010" /><rect x="156" y="290" width="14" height="14" rx="3" fill="#101010" /><rect x="156" y="312" width="14" height="14" rx="3" fill="#101010" /><rect x="156" y="334" width="14" height="14" rx="3" fill="#101010" /><rect x="156" y="356" width="14" height="14" rx="3" fill="#101010" /><rect x="156" y="378" width="14" height="14" rx="3" fill="#101010" /><rect x="182" y="246" width="14" height="14" rx="3" fill="#101010" /><rect x="182" y="268" width="14" height="14" rx="3" fill="#101010" /><rect x="182" y="290" width="14" height="14" rx="3" fill="#101010" /><rect x="182" y="312" width="14" height="14" rx="3" fill="#101010" /><rect x="182" y="334" width="14" height="14" rx="3" fill="#101010" /><rect x="182" y="356" width="14" height="14" rx="3" fill="#101010" /><rect x="182" y="378" width="14" height="14" rx="3" fill="#101010" /><rect x="208" y="246" width="14" height="14" rx="3" fill="#101010" /><rect x="208" y="268" width="14" height="14" rx="3" fill="#101010" /><rect x="208" y="290" width="14" height="14" rx="3" fill="#101010" /><rect x="208" y="312" width="14" height="14" rx="3" fill="#101010" /><rect x="208" y="334" width="14" height="14" rx="3" fill="#101010" /><rect x="208" y="356" width="14" height="14" rx="3" fill="#101010" /><rect x="208" y="378" width="14" height="14" rx="3" fill="#101010" /><rect x="234" y="246" width="14" height="14" rx="3" fill="#101010" /><rect x="234" y="268" width="14" height="14" rx="3" fill="#101010" /><rect x="234" y="290" width="14" height="14" rx="3" fill="#101010" /><rect x="234" y="312" width="14" height="14" rx="3" fill="#101010" /><rect x="234" y="334" width="14" height="14" rx="3" fill="#101010" /><rect x="234" y="356" width="14" height="14" rx="3" fill="#101010" /><rect x="234" y="378" width="14" height="14" rx="3" fill="#101010" /><rect x="260" y="246" width="14" height="14" rx="3" fill="#101010" /><rect x="260" y="268" width="14" height="14" rx="3" fill="#101010" /><rect x="260" y="290" width="14" height="14" rx="3" fill="#101010" /><rect x="260" y="312" width="14" height="14" rx="3" fill="#101010" /><rect x="260" y="334" width="14" height="14" rx="3" fill="#101010" /><rect x="260" y="356" width="14" height="14" rx="3" fill="#101010" /><rect x="260" y="378" width="14" height="14" rx="3" fill="#666666" /><rect x="286" y="246" width="14" height="14" rx="3" fill="#FFFFFF" /><rect x="286" y="268" width="14" height="14" rx="3" fill="#666666" /><rect x="286" y="290" width="14" height="14" rx="3" fill="#FFFFFF" /><rect x="286" y="312" width="14" height="14" rx="3" fill="#333333" /><rect x="286" y="334" width="14" height="14" rx="3" fill="#101010" /><rect x="286" y="356" width="14" height="14" rx="3" fill="#101010" /><rect x="286" y="378" width="14" height="14" rx="3" fill="#101010" /><rect x="312" y="246" width="14" height="14" rx="3" fill="#101010" /><rect x="312" y="268" width="14" height="14" rx="3" fill="#333333" /><rect x="312" y="290" width="14" height="14" rx="3" fill="#101010" /><rect x="312" y="312" width="14" height="14" rx="3" fill="#666666" /><rect x="312" y="334" width="14" height="14" rx="3" fill="#666666" /><rect x="312" y="356" width="14" height="14" rx="3" fill="#101010" /><rect x="312" y="378" width="14" height="14" rx="3" fill="#101010" /><rect x="338" y="246" width="14" height="14" rx="3" fill="#101010" /><rect x="338" y="268" width="14" height="14" rx="3" fill="#B5B5B5" /><rect x="338" y="290" width="14" height="14" rx="3" fill="#333333" /><rect x="338" y="312" width="14" height="14" rx="3" fill="#101010" /><rect x="338" y="334" width="14" height="14" rx="3" fill="#B5B5B5" /><rect x="338" y="356" width="14" height="14" rx="3" fill="#101010" /><rect x="338" y="378" width="14" height="14" rx="3" fill="#666666" /><rect x="364" y="246" width="14" height="14" rx="3" fill="#666666" /><rect x="364" y="268" width="14" height="14" rx="3" fill="#B5B5B5" /><rect x="364" y="290" width="14" height="14" rx="3" fill="#333333" /><rect x="364" y="312" width="14" height="14" rx="3" fill="#333333" /><rect x="364" y="334" width="14" height="14" rx="3" fill="#101010" /><rect x="364" y="356" width="14" height="14" rx="3" fill="#333333" /><rect x="364" y="378" width="14" height="14" rx="3" fill="#101010" /><rect x="390" y="246" width="14" height="14" rx="3" fill="#B5B5B5" /><rect x="390" y="268" width="14" height="14" rx="3" fill="#FFFFFF" /><rect x="390" y="290" width="14" height="14" rx="3" fill="#333333" /><rect x="390" y="312" width="14" height="14" rx="3" fill="#333333" /><rect x="390" y="334" width="14" height="14" rx="3" fill="#101010" /><rect x="390" y="356" width="14" height="14" rx="3" fill="#101010" /><rect x="390" y="378" width="14" height="14" rx="3" fill="#101010" /><rect x="416" y="246" width="14" height="14" rx="3" fill="#101010" /><rect x="416" y="268" width="14" height="14" rx="3" fill="#666666" /><rect x="416" y="290" width="14" height="14" rx="3" fill="#101010" /><rect x="416" y="312" width="14" height="14" rx="3" fill="#101010" /><rect x="416" y="334" width="14" height="14" rx="3" fill="#101010" /><rect x="416" y="356" width="14" height="14" rx="3" fill="#101010" /><rect x="416" y="378" width="14" height="14" rx="3" fill="#666666" /><rect x="442" y="246" width="14" height="14" rx="3" fill="#333333" /><rect x="442" y="268" width="14" height="14" rx="3" fill="#FFFFFF" /><rect x="442" y="290" width="14" height="14" rx="3" fill="#101010" /><rect x="442" y="312" width="14" height="14" rx="3" fill="#101010" /><rect x="442" y="334" width="14" height="14" rx="3" fill="#333333" /><rect x="442" y="356" width="14" height="14" rx="3" fill="#101010" /><rect x="442" y="378" width="14" height="14" rx="3" fill="#101010" /><rect x="468" y="246" width="14" height="14" rx="3" fill="#101010" /><rect x="468" y="268" width="14" height="14" rx="3" fill="#666666" /><rect x="468" y="290" width="14" height="14" rx="3" fill="#333333" /><rect x="468" y="312" width="14" height="14" rx="3" fill="#333333" /><rect x="468" y="334" width="14" height="14" rx="3" fill="#101010" /><rect x="468" y="356" width="14" height="14" rx="3" fill="#101010" /><rect x="468" y="378" width="14" height="14" rx="3" fill="#101010" />
  <line x1="156" y1="380" x2="480" y2="380" stroke="#171717" />
  <text x="156" y="392" class="mono grid-label">Jan 02</text>
  <text x="468" y="392" class="mono grid-label">Mar 26</text>
</svg>
