<svg xmlns="http://www.w3.org/2000/svg" width="860" height="230" viewBox="0 0 860 230" role="img" aria-label="Finance Repo Telemetry activity">
  <rect width="860" height="230" rx="24" fill="#07111A" />
  <rect x="24" y="24" width="812" height="182" rx="18" fill="#0B1520" stroke="#193042" />
  <text x="44" y="56" fill="#5CE1A5" font-size="14" font-weight="700" letter-spacing="1.4">REPO ACTIVITY</text>
  <text x="44" y="84" fill="#EAF2F8" font-size="24" font-weight="700">Finance Repo Telemetry</text>
  <text x="44" y="106" fill="#8AA0B6" font-size="14">Finance Signal Engine</text>
  <text x="44" y="126" fill="#8AA0B6" font-size="13">84-day repo activity · 65 commits in the last 30 days</text>
  <text x="392" y="56" fill="#8AA0B6" font-size="12">LOW</text>
  <rect x="430" y="44" width="12" height="12" rx="3" fill="#0B1520" />
  <rect x="448" y="44" width="12" height="12" rx="3" fill="#174B39" />
  <rect x="466" y="44" width="12" height="12" rx="3" fill="#0A7C66" />
  <rect x="484" y="44" width="12" height="12" rx="3" fill="#5CE1A5" />
  <text x="506" y="56" fill="#8AA0B6" font-size="12">HIGH</text>
  <rect x="44" y="78" width="12" height="12" rx="3" fill="#0B1520" /><rect x="44" y="96" width="12" height="12" rx="3" fill="#0B1520" /><rect x="44" y="114" width="12" height="12" rx="3" fill="#0B1520" /><rect x="44" y="132" width="12" height="12" rx="3" fill="#0B1520" /><rect x="44" y="150" width="12" height="12" rx="3" fill="#0B1520" /><rect x="44" y="168" width="12" height="12" rx="3" fill="#0B1520" /><rect x="44" y="186" width="12" height="12" rx="3" fill="#0B1520" /><rect x="72" y="78" width="12" height="12" rx="3" fill="#0B1520" /><rect x="72" y="96" width="12" height="12" rx="3" fill="#0B1520" /><rect x="72" y="114" width="12" height="12" rx="3" fill="#0B1520" /><rect x="72" y="132" width="12" height="12" rx="3" fill="#0B1520" /><rect x="72" y="150" width="12" height="12" rx="3" fill="#0B1520" /><rect x="72" y="168" width="12" height="12" rx="3" fill="#0B1520" /><rect x="72" y="186" width="12" height="12" rx="3" fill="#0B1520" /><rect x="100" y="78" width="12" height="12" rx="3" fill="#0B1520" /><rect x="100" y="96" width="12" height="12" rx="3" fill="#0B1520" /><rect x="100" y="114" width="12" height="12" rx="3" fill="#0B1520" /><rect x="100" y="132" width="12" height="12" rx="3" fill="#0B1520" /><rect x="100" y="150" width="12" height="12" rx="3" fill="#0B1520" /><rect x="100" y="168" width="12" height="12" rx="3" fill="#0B1520" /><rect x="100" y="186" width="12" height="12" rx="3" fill="#0B1520" /><rect x="128" y="78" width="12" height="12" rx="3" fill="#0B1520" /><rect x="128" y="96" width="12" height="12" rx="3" fill="#0B1520" /><rect x="128" y="114" width="12" height="12" rx="3" fill="#0B1520" /><rect x="128" y="132" width="12" height="12" rx="3" fill="#0B1520" /><rect x="128" y="150" width="12" height="12" rx="3" fill="#0B1520" /><rect x="128" y="168" width="12" height="12" rx="3" fill="#0B1520" /><rect x="128" y="186" width="12" height="12" rx="3" fill="#0B1520" /><rect x="156" y="78" width="12" height="12" rx="3" fill="#0B1520" /><rect x="156" y="96" width="12" height="12" rx="3" fill="#0B1520" /><rect x="156" y="114" width="12" height="12" rx="3" fill="#0A7C66" /><rect x="156" y="132" width="12" height="12" rx="3" fill="#5CE1A5" /><rect x="156" y="150" width="12" height="12" rx="3" fill="#0A7C66" /><rect x="156" y="168" width="12" height="12" rx="3" fill="#5CE1A5" /><rect x="156" y="186" width="12" height="12" rx="3" fill="#174B39" /><rect x="184" y="78" width="12" height="12" rx="3" fill="#0B1520" /><rect x="184" y="96" width="12" height="12" rx="3" fill="#0B1520" /><rect x="184" y="114" width="12" height="12" rx="3" fill="#0B1520" /><rect x="184" y="132" width="12" height="12" rx="3" fill="#0B1520" /><rect x="184" y="150" width="12" height="12" rx="3" fill="#174B39" /><rect x="184" y="168" width="12" height="12" rx="3" fill="#0B1520" /><rect x="184" y="186" width="12" height="12" rx="3" fill="#174B39" /><rect x="212" y="78" width="12" height="12" rx="3" fill="#0A7C66" /><rect x="212" y="96" width="12" height="12" rx="3" fill="#0B1520" /><rect x="212" y="114" width="12" height="12" rx="3" fill="#0B1520" /><rect x="212" y="132" width="12" height="12" rx="3" fill="#0B1520" /><rect x="212" y="150" width="12" height="12" rx="3" fill="#0A7C66" /><rect x="212" y="168" width="12" height="12" rx="3" fill="#174B39" /><rect x="212" y="186" width="12" height="12" rx="3" fill="#0B1520" /><rect x="240" y="78" width="12" height="12" rx="3" fill="#0A7C66" /><rect x="240" y="96" width="12" height="12" rx="3" fill="#0B1520" /><rect x="240" y="114" width="12" height="12" rx="3" fill="#0A7C66" /><rect x="240" y="132" width="12" height="12" rx="3" fill="#174B39" /><rect x="240" y="150" width="12" height="12" rx="3" fill="#0A7C66" /><rect x="240" y="168" width="12" height="12" rx="3" fill="#174B39" /><rect x="240" y="186" width="12" height="12" rx="3" fill="#174B39" /><rect x="268" y="78" width="12" height="12" rx="3" fill="#0B1520" /><rect x="268" y="96" width="12" height="12" rx="3" fill="#174B39" /><rect x="268" y="114" width="12" height="12" rx="3" fill="#0B1520" /><rect x="268" y="132" width="12" height="12" rx="3" fill="#0A7C66" /><rect x="268" y="150" width="12" height="12" rx="3" fill="#5CE1A5" /><rect x="268" y="168" width="12" height="12" rx="3" fill="#174B39" /><rect x="268" y="186" width="12" height="12" rx="3" fill="#174B39" /><rect x="296" y="78" width="12" height="12" rx="3" fill="#0B1520" /><rect x="296" y="96" width="12" height="12" rx="3" fill="#0B1520" /><rect x="296" y="114" width="12" height="12" rx="3" fill="#0B1520" /><rect x="296" y="132" width="12" height="12" rx="3" fill="#0B1520" /><rect x="296" y="150" width="12" height="12" rx="3" fill="#174B39" /><rect x="296" y="168" width="12" height="12" rx="3" fill="#0B1520" /><rect x="296" y="186" width="12" height="12" rx="3" fill="#0B1520" /><rect x="324" y="78" width="12" height="12" rx="3" fill="#0B1520" /><rect x="324" y="96" width="12" height="12" rx="3" fill="#0B1520" /><rect x="324" y="114" width="12" height="12" rx="3" fill="#174B39" /><rect x="324" y="132" width="12" height="12" rx="3" fill="#174B39" /><rect x="324" y="150" width="12" height="12" rx="3" fill="#5CE1A5" /><rect x="324" y="168" width="12" height="12" rx="3" fill="#0B1520" /><rect x="324" y="186" width="12" height="12" rx="3" fill="#0B1520" /><rect x="352" y="78" width="12" height="12" rx="3" fill="#174B39" /><rect x="352" y="96" width="12" height="12" rx="3" fill="#0B1520" /><rect x="352" y="114" width="12" height="12" rx="3" fill="#0B1520" /><rect x="352" y="132" width="12" height="12" rx="3" fill="#0B1520" /><rect x="352" y="150" width="12" height="12" rx="3" fill="#0A7C66" /><rect x="352" y="168" width="12" height="12" rx="3" fill="#174B39" /><rect x="352" y="186" width="12" height="12" rx="3" fill="#174B39" />
</svg>
