<svg xmlns="http://www.w3.org/2000/svg" width="860" height="230" viewBox="0 0 860 230" role="img" aria-label="Finance Repo Telemetry activity">
  
  <style>
    .ui { font-family: 'Segoe UI', Arial, sans-serif; }
    .mono { font-family: 'JetBrains Mono', 'Fira Code', Consolas, monospace; }
    .label { fill: #8AA0B6; font-size: 12px; letter-spacing: 1.2px; text-transform: uppercase; }
    .value { fill: #EAF2F8; font-size: 30px; font-weight: 700; }
    .title { fill: #EAF2F8; font-size: 28px; font-weight: 700; }
    .subtitle { fill: #8AA0B6; font-size: 15px; }
    .eyebrow { fill: #5CE1A5; font-size: 14px; font-weight: 700; letter-spacing: 1.4px; }
  </style>

  <rect width="860" height="230" rx="24" fill="#07111A" />
  <rect x="24" y="24" width="812" height="182" rx="18" fill="#0B1520" stroke="#193042" />
  <text x="44" y="56" class="ui eyebrow">REPO ACTIVITY</text>
  <text x="44" y="84" class="ui" fill="#EAF2F8" font-size="24" font-weight="700">Finance Repo Telemetry</text>
  <text x="44" y="104" class="ui" fill="#8AA0B6" font-size="14">Finance Signal Engine</text>
  <text x="44" y="126" class="ui" fill="#8AA0B6" font-size="13">84-day repo activity - 62 commits in the last 30 days</text>
  <text x="44" y="156" class="ui label">Signal Window</text>
  <text x="44" y="182" class="mono" fill="#EAF2F8" font-size="18" font-weight="700">62 commits / 30d</text>
  <text x="44" y="202" class="ui" fill="#8AA0B6" font-size="12">Last commit: 2026-03-25</text>
  <text x="372" y="84" class="ui label">Low</text>
  <rect x="410" y="72" width="12" height="12" rx="3" fill="#0B1520" />
  <rect x="428" y="72" width="12" height="12" rx="3" fill="#174B39" />
  <rect x="446" y="72" width="12" height="12" rx="3" fill="#0A7C66" />
  <rect x="464" y="72" width="12" height="12" rx="3" fill="#5CE1A5" />
  <text x="486" y="84" class="ui label">High</text>
  <line x1="340" y1="60" x2="340" y2="190" stroke="#193042" />
  <rect x="372" y="104" width="12" height="12" rx="3" fill="#0B1520" /><rect x="372" y="120" width="12" height="12" rx="3" fill="#0B1520" /><rect x="372" y="136" width="12" height="12" rx="3" fill="#0B1520" /><rect x="372" y="152" width="12" height="12" rx="3" fill="#0B1520" /><rect x="372" y="168" width="12" height="12" rx="3" fill="#0B1520" /><rect x="372" y="184" width="12" height="12" rx="3" fill="#0B1520" /><rect x="372" y="200" width="12" height="12" rx="3" fill="#0B1520" /><rect x="400" y="104" width="12" height="12" rx="3" fill="#0B1520" /><rect x="400" y="120" width="12" height="12" rx="3" fill="#0B1520" /><rect x="400" y="136" width="12" height="12" rx="3" fill="#0B1520" /><rect x="400" y="152" width="12" height="12" rx="3" fill="#0B1520" /><rect x="400" y="168" width="12" height="12" rx="3" fill="#0B1520" /><rect x="400" y="184" width="12" height="12" rx="3" fill="#0B1520" /><rect x="400" y="200" width="12" height="12" rx="3" fill="#0B1520" /><rect x="428" y="104" width="12" height="12" rx="3" fill="#0B1520" /><rect x="428" y="120" width="12" height="12" rx="3" fill="#0B1520" /><rect x="428" y="136" width="12" height="12" rx="3" fill="#0B1520" /><rect x="428" y="152" width="12" height="12" rx="3" fill="#0B1520" /><rect x="428" y="168" width="12" height="12" rx="3" fill="#0B1520" /><rect x="428" y="184" width="12" height="12" rx="3" fill="#0B1520" /><rect x="428" y="200" width="12" height="12" rx="3" fill="#0B1520" /><rect x="456" y="104" width="12" height="12" rx="3" fill="#0B1520" /><rect x="456" y="120" width="12" height="12" rx="3" fill="#0B1520" /><rect x="456" y="136" width="12" height="12" rx="3" fill="#0B1520" /><rect x="456" y="152" width="12" height="12" rx="3" fill="#0B1520" /><rect x="456" y="168" width="12" height="12" rx="3" fill="#0B1520" /><rect x="456" y="184" width="12" height="12" rx="3" fill="#0B1520" /><rect x="456" y="200" width="12" height="12" rx="3" fill="#0B1520" /><rect x="484" y="104" width="12" height="12" rx="3" fill="#0B1520" /><rect x="484" y="120" width="12" height="12" rx="3" fill="#0B1520" /><rect x="484" y="136" width="12" height="12" rx="3" fill="#0A7C66" /><rect x="484" y="152" width="12" height="12" rx="3" fill="#5CE1A5" /><rect x="484" y="168" width="12" height="12" rx="3" fill="#0A7C66" /><rect x="484" y="184" width="12" height="12" rx="3" fill="#5CE1A5" /><rect x="484" y="200" width="12" height="12" rx="3" fill="#174B39" /><rect x="512" y="104" width="12" height="12" rx="3" fill="#0B1520" /><rect x="512" y="120" width="12" height="12" rx="3" fill="#0B1520" /><rect x="512" y="136" width="12" height="12" rx="3" fill="#0B1520" /><rect x="512" y="152" width="12" height="12" rx="3" fill="#0B1520" /><rect x="512" y="168" width="12" height="12" rx="3" fill="#174B39" /><rect x="512" y="184" width="12" height="12" rx="3" fill="#0B1520" /><rect x="512" y="200" width="12" height="12" rx="3" fill="#174B39" /><rect x="540" y="104" width="12" height="12" rx="3" fill="#0A7C66" /><rect x="540" y="120" width="12" height="12" rx="3" fill="#0B1520" /><rect x="540" y="136" width="12" height="12" rx="3" fill="#0B1520" /><rect x="540" y="152" width="12" height="12" rx="3" fill="#0B1520" /><rect x="540" y="168" width="12" height="12" rx="3" fill="#0A7C66" /><rect x="540" y="184" width="12" height="12" rx="3" fill="#174B39" /><rect x="540" y="200" width="12" height="12" rx="3" fill="#0B1520" /><rect x="568" y="104" width="12" height="12" rx="3" fill="#0A7C66" /><rect x="568" y="120" width="12" height="12" rx="3" fill="#0B1520" /><rect x="568" y="136" width="12" height="12" rx="3" fill="#0A7C66" /><rect x="568" y="152" width="12" height="12" rx="3" fill="#174B39" /><rect x="568" y="168" width="12" height="12" rx="3" fill="#0A7C66" /><rect x="568" y="184" width="12" height="12" rx="3" fill="#174B39" /><rect x="568" y="200" width="12" height="12" rx="3" fill="#174B39" /><rect x="596" y="104" width="12" height="12" rx="3" fill="#0B1520" /><rect x="596" y="120" width="12" height="12" rx="3" fill="#174B39" /><rect x="596" y="136" width="12" height="12" rx="3" fill="#0B1520" /><rect x="596" y="152" width="12" height="12" rx="3" fill="#0A7C66" /><rect x="596" y="168" width="12" height="12" rx="3" fill="#5CE1A5" /><rect x="596" y="184" width="12" height="12" rx="3" fill="#174B39" /><rect x="596" y="200" width="12" height="12" rx="3" fill="#174B39" /><rect x="624" y="104" width="12" height="12" rx="3" fill="#0B1520" /><rect x="624" y="120" width="12" height="12" rx="3" fill="#0B1520" /><rect x="624" y="136" width="12" height="12" rx="3" fill="#0B1520" /><rect x="624" y="152" width="12" height="12" rx="3" fill="#0B1520" /><rect x="624" y="168" width="12" height="12" rx="3" fill="#174B39" /><rect x="624" y="184" width="12" height="12" rx="3" fill="#0B1520" /><rect x="624" y="200" width="12" height="12" rx="3" fill="#0B1520" /><rect x="652" y="104" width="12" height="12" rx="3" fill="#0B1520" /><rect x="652" y="120" width="12" height="12" rx="3" fill="#0B1520" /><rect x="652" y="136" width="12" height="12" rx="3" fill="#174B39" /><rect x="652" y="152" width="12" height="12" rx="3" fill="#174B39" /><rect x="652" y="168" width="12" height="12" rx="3" fill="#5CE1A5" /><rect x="652" y="184" width="12" height="12" rx="3" fill="#0B1520" /><rect x="652" y="200" width="12" height="12" rx="3" fill="#0B1520" /><rect x="680" y="104" width="12" height="12" rx="3" fill="#174B39" /><rect x="680" y="120" width="12" height="12" rx="3" fill="#0B1520" /><rect x="680" y="136" width="12" height="12" rx="3" fill="#0B1520" /><rect x="680" y="152" width="12" height="12" rx="3" fill="#0B1520" /><rect x="680" y="168" width="12" height="12" rx="3" fill="#0A7C66" /><rect x="680" y="184" width="12" height="12" rx="3" fill="#174B39" /><rect x="680" y="200" width="12" height="12" rx="3" fill="#0B1520" />
</svg>
