<svg xmlns="http://www.w3.org/2000/svg" width="920" height="320" viewBox="0 0 920 320" role="img" aria-label="Finance Repo Telemetry activity">
  
  <style>
    .ui { font-family: 'Segoe UI', Arial, sans-serif; }
    .mono { font-family: 'IBM Plex Mono', 'JetBrains Mono', 'Fira Code', Consolas, monospace; }
    .display { font-family: 'Segoe UI', Arial, sans-serif; font-weight: 700; }
    .eyebrow { fill: #FAFAFA; font-size: 12px; font-weight: 700; letter-spacing: 2.4px; text-transform: uppercase; }
    .title { fill: #FAFAFA; font-size: 31px; font-weight: 700; }
    .subtitle { fill: #D4D4D4; font-size: 15px; }
    .label { fill: #A8A8A8; font-size: 11px; letter-spacing: 1.8px; text-transform: uppercase; }
    .value { fill: #FFFFFF; font-size: 28px; font-weight: 700; }
    .muted { fill: #8C8C8C; font-size: 12px; }
    .grid-label { fill: #9E9E9E; font-size: 11px; }
  </style>

  <rect width="920" height="320" rx="28" fill="#020202" />
  <rect x="24" y="24" width="872" height="272" rx="18" fill="#070707" stroke="#2B2B2B" />

  <text x="74" y="58" class="mono eyebrow">REPO ACTIVITY</text>
  <text x="74" y="80" class="ui label">SESSION SUMMARY</text>
  <text x="74" y="108" class="ui title" font-size="17">Finance Repo Telemetry</text>
  <text x="74" y="132" class="ui subtitle" font-size="13">Finance Signal Engine</text>
  <text x="74" y="152" class="ui muted">84-day repo activity - 63 commits in the last 30 days</text>

  <line x1="390" y1="40" x2="390" y2="278" stroke="#232323" />

  <text x="74" y="198" class="ui label">30D COMMITS</text>
  <text x="74" y="218" class="mono" fill="#FFFFFF" font-size="18" font-weight="700">63 sessions</text>

  <text x="226" y="198" class="ui label">ACTIVE DAYS</text>
  <text x="226" y="218" class="mono" fill="#FFFFFF" font-size="18" font-weight="700">29 sessions</text>

  <text x="74" y="252" class="ui label">PEAK SESSION</text>
  <text x="74" y="272" class="mono" fill="#FFFFFF" font-size="18" font-weight="700">15 commits</text>

  <text x="226" y="252" class="ui label">CURRENT STREAK</text>
  <text x="226" y="272" class="mono" fill="#FFFFFF" font-size="18" font-weight="700">3 days</text>
  <text x="74" y="286" class="ui muted">Last print: Mar 26</text>

  <text x="420" y="58" class="mono eyebrow">SESSION TAPE</text>
  <text x="420" y="80" class="ui muted">84 trading days rendered as an execution-style activity grid.</text>
  <text x="738" y="58" class="ui label">LOW</text>
  <rect x="776" y="46" width="12" height="12" rx="3" fill="#101010" />
  <rect x="796" y="46" width="12" height="12" rx="3" fill="#333333" />
  <rect x="816" y="46" width="12" height="12" rx="3" fill="#666666" />
  <rect x="836" y="46" width="12" height="12" rx="3" fill="#B5B5B5" />
  <rect x="856" y="46" width="12" height="12" rx="3" fill="#FFFFFF" />
  <text x="876" y="58" class="ui label">HIGH</text>

  <text x="448" y="108" class="mono grid-label">Dec 29</text><text x="592" y="108" class="mono grid-label">Feb 09</text><text x="736" y="108" class="mono grid-label">Mar 23</text>
  <text x="432" y="137" class="ui grid-label" text-anchor="end">Mon</text><text x="432" y="157" class="ui grid-label" text-anchor="end">Tue</text><text x="432" y="177" class="ui grid-label" text-anchor="end">Wed</text><text x="432" y="197" class="ui grid-label" text-anchor="end">Thu</text><text x="432" y="217" class="ui grid-label" text-anchor="end">Fri</text><text x="432" y="237" class="ui grid-label" text-anchor="end">Sat</text><text x="432" y="257" class="ui grid-label" text-anchor="end">Sun</text>
  <rect x="448" y="124" width="12" height="12" rx="3" fill="#101010" /><rect x="448" y="144" width="12" height="12" rx="3" fill="#101010" /><rect x="448" y="164" width="12" height="12" rx="3" fill="#101010" /><rect x="448" y="184" width="12" height="12" rx="3" fill="#101010" /><rect x="448" y="204" width="12" height="12" rx="3" fill="#101010" /><rect x="448" y="224" width="12" height="12" rx="3" fill="#101010" /><rect x="448" y="244" width="12" height="12" rx="3" fill="#101010" /><rect x="472" y="124" width="12" height="12" rx="3" fill="#101010" /><rect x="472" y="144" width="12" height="12" rx="3" fill="#101010" /><rect x="472" y="164" width="12" height="12" rx="3" fill="#101010" /><rect x="472" y="184" width="12" height="12" rx="3" fill="#101010" /><rect x="472" y="204" width="12" height="12" rx="3" fill="#101010" /><rect x="472" y="224" width="12" height="12" rx="3" fill="#101010" /><rect x="472" y="244" width="12" height="12" rx="3" fill="#101010" /><rect x="496" y="124" width="12" height="12" rx="3" fill="#101010" /><rect x="496" y="144" width="12" height="12" rx="3" fill="#101010" /><rect x="496" y="164" width="12" height="12" rx="3" fill="#101010" /><rect x="496" y="184" width="12" height="12" rx="3" fill="#101010" /><rect x="496" y="204" width="12" height="12" rx="3" fill="#101010" /><rect x="496" y="224" width="12" height="12" rx="3" fill="#101010" /><rect x="496" y="244" width="12" height="12" rx="3" fill="#101010" /><rect x="520" y="124" width="12" height="12" rx="3" fill="#101010" /><rect x="520" y="144" width="12" height="12" rx="3" fill="#101010" /><rect x="520" y="164" width="12" height="12" rx="3" fill="#101010" /><rect x="520" y="184" width="12" height="12" rx="3" fill="#101010" /><rect x="520" y="204" width="12" height="12" rx="3" fill="#101010" /><rect x="520" y="224" width="12" height="12" rx="3" fill="#101010" /><rect x="520" y="244" width="12" height="12" rx="3" fill="#101010" /><rect x="544" y="124" width="12" height="12" rx="3" fill="#101010" /><rect x="544" y="144" width="12" height="12" rx="3" fill="#101010" /><rect x="544" y="164" width="12" height="12" rx="3" fill="#101010" /><rect x="544" y="184" width="12" height="12" rx="3" fill="#101010" /><rect x="544" y="204" width="12" height="12" rx="3" fill="#101010" /><rect x="544" y="224" width="12" height="12" rx="3" fill="#101010" /><rect x="544" y="244" width="12" height="12" rx="3" fill="#666666" /><rect x="568" y="124" width="12" height="12" rx="3" fill="#FFFFFF" /><rect x="568" y="144" width="12" height="12" rx="3" fill="#666666" /><rect x="568" y="164" width="12" height="12" rx="3" fill="#FFFFFF" /><rect x="568" y="184" width="12" height="12" rx="3" fill="#333333" /><rect x="568" y="204" width="12" height="12" rx="3" fill="#101010" /><rect x="568" y="224" width="12" height="12" rx="3" fill="#101010" /><rect x="568" y="244" width="12" height="12" rx="3" fill="#101010" /><rect x="592" y="124" width="12" height="12" rx="3" fill="#101010" /><rect x="592" y="144" width="12" height="12" rx="3" fill="#333333" /><rect x="592" y="164" width="12" height="12" rx="3" fill="#101010" /><rect x="592" y="184" width="12" height="12" rx="3" fill="#666666" /><rect x="592" y="204" width="12" height="12" rx="3" fill="#666666" /><rect x="592" y="224" width="12" height="12" rx="3" fill="#101010" /><rect x="592" y="244" width="12" height="12" rx="3" fill="#101010" /><rect x="616" y="124" width="12" height="12" rx="3" fill="#101010" /><rect x="616" y="144" width="12" height="12" rx="3" fill="#B5B5B5" /><rect x="616" y="164" width="12" height="12" rx="3" fill="#333333" /><rect x="616" y="184" width="12" height="12" rx="3" fill="#101010" /><rect x="616" y="204" width="12" height="12" rx="3" fill="#B5B5B5" /><rect x="616" y="224" width="12" height="12" rx="3" fill="#101010" /><rect x="616" y="244" width="12" height="12" rx="3" fill="#666666" /><rect x="640" y="124" width="12" height="12" rx="3" fill="#666666" /><rect x="640" y="144" width="12" height="12" rx="3" fill="#B5B5B5" /><rect x="640" y="164" width="12" height="12" rx="3" fill="#333333" /><rect x="640" y="184" width="12" height="12" rx="3" fill="#333333" /><rect x="640" y="204" width="12" height="12" rx="3" fill="#101010" /><rect x="640" y="224" width="12" height="12" rx="3" fill="#333333" /><rect x="640" y="244" width="12" height="12" rx="3" fill="#101010" /><rect x="664" y="124" width="12" height="12" rx="3" fill="#B5B5B5" /><rect x="664" y="144" width="12" height="12" rx="3" fill="#FFFFFF" /><rect x="664" y="164" width="12" height="12" rx="3" fill="#333333" /><rect x="664" y="184" width="12" height="12" rx="3" fill="#333333" /><rect x="664" y="204" width="12" height="12" rx="3" fill="#101010" /><rect x="664" y="224" width="12" height="12" rx="3" fill="#101010" /><rect x="664" y="244" width="12" height="12" rx="3" fill="#101010" /><rect x="688" y="124" width="12" height="12" rx="3" fill="#101010" /><rect x="688" y="144" width="12" height="12" rx="3" fill="#666666" /><rect x="688" y="164" width="12" height="12" rx="3" fill="#101010" /><rect x="688" y="184" width="12" height="12" rx="3" fill="#101010" /><rect x="688" y="204" width="12" height="12" rx="3" fill="#101010" /><rect x="688" y="224" width="12" height="12" rx="3" fill="#101010" /><rect x="688" y="244" width="12" height="12" rx="3" fill="#666666" /><rect x="712" y="124" width="12" height="12" rx="3" fill="#333333" /><rect x="712" y="144" width="12" height="12" rx="3" fill="#FFFFFF" /><rect x="712" y="164" width="12" height="12" rx="3" fill="#101010" /><rect x="712" y="184" width="12" height="12" rx="3" fill="#101010" /><rect x="712" y="204" width="12" height="12" rx="3" fill="#333333" /><rect x="712" y="224" width="12" height="12" rx="3" fill="#101010" /><rect x="712" y="244" width="12" height="12" rx="3" fill="#101010" /><rect x="736" y="124" width="12" height="12" rx="3" fill="#101010" /><rect x="736" y="144" width="12" height="12" rx="3" fill="#666666" /><rect x="736" y="164" width="12" height="12" rx="3" fill="#333333" /><rect x="736" y="184" width="12" height="12" rx="3" fill="#333333" /><rect x="736" y="204" width="12" height="12" rx="3" fill="#101010" /><rect x="736" y="224" width="12" height="12" rx="3" fill="#101010" /><rect x="736" y="244" width="12" height="12" rx="3" fill="#101010" />
  <line x1="448" y1="266" x2="736" y2="266" stroke="#171717" />
  <text x="448" y="278" class="mono grid-label">Jan 02</text>
  <text x="736" y="278" class="mono grid-label">Mar 26</text>
</svg>
